<svg width="19" height="19" viewBox="0 0 19 19" fill="none" xmlns="http://www.w3.org/2000/svg">
<path d="M0 9.12C0 4.81967 0 2.67267 1.33 1.33C2.679 0 4.826 0 9.12 0H9.88C14.1803 0 16.3273 0 17.67 1.33C19 2.679 19 4.826 19 9.12V9.88C19 14.1803 19 16.3273 17.67 17.67C16.321 19 14.174 19 9.88 19H9.12C4.81967 19 2.67267 19 1.33 17.67C0 16.321 0 14.174 0 9.88V9.12Z" fill="#0E0D0D"/>
<path d="M10.1084 13.6862C5.77641 13.6862 3.30641 10.7222 3.20508 5.78221H5.38374C5.45341 9.40488 7.04941 10.9375 8.31608 11.2542V5.78221H10.3617V8.90455C11.6094 8.77155 12.9267 7.34655 13.3701 5.77588H15.4094C15.2431 6.58893 14.911 7.35896 14.4337 8.03785C13.9564 8.71674 13.3442 9.28991 12.6354 9.72155C13.4264 10.1152 14.1249 10.6721 14.685 11.3555C15.245 12.0389 15.6538 12.8333 15.8844 13.6862H13.6361C13.1547 12.1852 11.9514 11.0199 10.3617 10.8615V13.6862H10.1147H10.1084Z" fill="white"/>
</svg>
