<svg width="19" height="19" viewBox="0 0 19 19" fill="none" xmlns="http://www.w3.org/2000/svg">
<path fill-rule="evenodd" clip-rule="evenodd" d="M16.15 2.73125C14.3688 0.95 11.9937 0 9.5 0C4.275 0 0 4.275 0 9.5C0 11.1625 0.475007 12.825 1.30626 14.25L0 19L4.98751 17.6938C6.41251 18.4062 7.95625 18.8813 9.5 18.8813C14.725 18.8813 19 14.6062 19 9.38125C19 6.8875 17.9313 4.5125 16.15 2.73125ZM9.5 17.3375C8.075 17.3375 6.65001 16.9813 5.46251 16.2688L5.22499 16.15L2.25624 16.9812L3.08751 14.1312L2.84999 13.775C2.01874 12.4688 1.66249 11.0438 1.66249 9.61875C1.66249 5.34375 5.225 1.78125 9.5 1.78125C11.6375 1.78125 13.5375 2.6125 15.0813 4.0375C16.625 5.58125 17.3375 7.48125 17.3375 9.61875C17.3375 13.775 13.8938 17.3375 9.5 17.3375ZM13.775 11.4C13.5375 11.2812 12.35 10.6875 12.1125 10.6875C11.875 10.5688 11.7562 10.5688 11.6375 10.8063C11.5187 11.0438 11.0438 11.5187 10.925 11.7562C10.8063 11.875 10.6875 11.875 10.45 11.875C10.2125 11.7563 9.50001 11.5188 8.55001 10.6875C7.83751 10.0938 7.36251 9.2625 7.24376 9.025C7.12501 8.7875 7.24376 8.66875 7.36251 8.55C7.48126 8.43125 7.6 8.3125 7.71875 8.19375C7.8375 8.075 7.83751 7.95625 7.95626 7.8375C8.07501 7.71875 7.95626 7.6 7.95626 7.48125C7.95626 7.3625 7.48126 6.175 7.24376 5.7C7.12501 5.34375 6.88751 5.34375 6.76876 5.34375C6.65001 5.34375 6.53124 5.34375 6.29374 5.34375C6.17499 5.34375 5.93749 5.34375 5.69999 5.58125C5.46249 5.81875 4.86876 6.4125 4.86876 7.6C4.86876 8.7875 5.69999 9.85625 5.81874 10.0938C5.93749 10.2125 7.48124 12.7063 9.85624 13.6562C11.875 14.4875 12.2313 14.25 12.7063 14.25C13.1813 14.25 14.1313 13.6562 14.25 13.1813C14.4875 12.5875 14.4875 12.1125 14.3688 12.1125C14.25 11.5188 14.0125 11.5188 13.775 11.4Z" fill="#0E0D0D"/>
</svg>
